<?xml version="1.0" standalone="no"?><!DOCTYPE svg PUBLIC "-//W3C//DTD SVG 1.1//EN" "http://www.w3.org/Graphics/SVG/1.1/DTD/svg11.dtd"><svg t="1648281354160" class="icon" viewBox="0 0 1024 1024" version="1.1" xmlns="http://www.w3.org/2000/svg" p-id="2061" width="24" height="24" xmlns:xlink="http://www.w3.org/1999/xlink"><defs><style type="text/css">@font-face { font-family: feedback-iconfont; src: url("//at.alicdn.com/t/font_1031158_u69w8yhxdu.woff2?t=1630033759944") format("woff2"), url("//at.alicdn.com/t/font_1031158_u69w8yhxdu.woff?t=1630033759944") format("woff"), url("//at.alicdn.com/t/font_1031158_u69w8yhxdu.ttf?t=1630033759944") format("truetype"); }
</style></defs><path d="M593.322667 633.984c41.386667-49.664 137.984 3.2 150.186666-93.866667a228.352 228.352 0 0 0-65.706666-194.005333 234.24 234.24 0 0 0-331.690667 0 234.24 234.24 0 0 0 0 331.690667 232.874667 232.874667 0 0 0 168.96 68.821333c98.432-3.541333 34.645333-61.482667 78.250667-112.64z m-413.013334 209.621333c-183.509333-183.04-183.509333-480.256 0-663.296 183.04-183.509333 480.256-183.509333 663.296 0 183.509333 183.04 183.509333 480.256 0 663.296-183.04 183.509333-480.256 183.509333-663.296 0z" fill="#2012D9" p-id="2062"></path></svg>