<svg width="32" height="32" viewBox="0 0 32 32" fill="none" xmlns="http://www.w3.org/2000/svg">
<path fill-rule="evenodd" clip-rule="evenodd" d="M7.5 3C7.36739 3 7.24021 3.05268 7.14645 3.14645C7.05268 3.24021 7 3.36739 7 3.5V26.5C7 26.776 7.224 27 7.5 27H24.5C24.6326 27 24.7598 26.9473 24.8536 26.8536C24.9473 26.7598 25 26.6326 25 26.5V12H19.5C18.5717 12 17.6815 11.6313 17.0251 10.9749C16.3687 10.3185 16 9.42826 16 8.5V3H7.5ZM19 4.12V8.5C19 8.776 19.224 9 19.5 9H23.88L19 4.12ZM4 3.5C4 1.568 5.568 0 7.5 0H17.672C18.6 0 19.49 0.368 20.146 1.026L26.974 7.854C27.632 8.51 28 9.4 28 10.328V26.5C28 27.4283 27.6313 28.3185 26.9749 28.9749C26.3185 29.6313 25.4283 30 24.5 30H7.5C6.57174 30 5.6815 29.6313 5.02513 28.9749C4.36875 28.3185 4 27.4283 4 26.5V3.5Z" fill="#57606A"/>
</svg>
