<svg width="32" height="32" viewBox="0 0 32 32" fill="none" xmlns="http://www.w3.org/2000/svg">
<g clip-path="url(#clip0)">
<path fill-rule="evenodd" clip-rule="evenodd" d="M3.5 2C2.57174 2 1.6815 2.36875 1.02513 3.02513C0.368749 3.6815 0 4.57174 0 5.5L0 26.5C0 28.432 1.568 30 3.5 30H28.5C29.4283 30 30.3185 29.6313 30.9749 28.9749C31.6313 28.3185 32 27.4283 32 26.5V9.5C32 8.57174 31.6313 7.6815 30.9749 7.02513C30.3185 6.36875 29.4283 6 28.5 6H15.5C15.4224 6 15.3458 5.98193 15.2764 5.94721C15.207 5.9125 15.1466 5.8621 15.1 5.8L13.3 3.4C12.64 2.52 11.6 2 10.5 2H3.5Z" fill="#54AEFF"/>
</g>
<defs>
<clipPath id="clip0">
<rect width="32" height="32" fill="white"/>
</clipPath>
</defs>
</svg>
