<svg width="24" height="24" viewBox="0 0 24 24" fill="none" xmlns="http://www.w3.org/2000/svg">
<path d="M23.7964 12.2359C23.7964 11.0423 23.2429 9.97913 22.3811 9.285C22.0399 9.97425 21.4534 10.5173 20.7379 10.812C21.759 10.284 22.4584 9.22088 22.4584 7.99275C22.4584 6.23963 21.0394 4.83713 19.2862 4.83713C19.1531 4.83713 19.0279 4.84688 18.8985 4.86263C19.3372 5.82225 19.5802 6.8685 19.5802 7.99275C19.5802 8.06513 19.5765 8.13675 19.5739 8.20875C19.4479 4.13438 16.1077 0.869629 12.0019 0.869629C7.90836 0.869629 4.57461 4.116 4.43061 8.175C4.42911 8.11388 4.42349 8.05388 4.42349 7.99275C4.42349 6.87075 4.67361 5.8095 5.11086 4.85175C2.34486 5.19863 0.203613 7.55438 0.203613 10.4145C0.203613 13.5139 2.71611 16.0264 5.81549 16.0264H20.0857V16.02C22.1415 15.9784 23.7964 14.3018 23.7964 12.2359Z" fill="#1EBCC5"/>
<path d="M11.9397 13.7377C9.00565 13.7377 6.62703 11.3591 6.62703 8.42509C6.62703 5.49147 9.00565 3.11247 11.9397 3.11247C14.874 3.11247 17.2523 5.49109 17.2523 8.42509C17.2523 11.3591 14.874 13.7377 11.9397 13.7377ZM11.9423 2.33472C8.57328 2.33472 5.84253 5.06547 5.84253 8.43409C5.84253 11.8027 8.57328 14.5338 11.9423 14.5338C15.3113 14.5338 18.0417 11.8027 18.0417 8.43409C18.0417 5.06547 15.3113 2.33472 11.9423 2.33472Z" fill="white"/>
<path d="M12.8767 8.38091H12.8699H11.2106H11.2038V7.04741H11.2106H12.8699H12.8767C13.2449 7.04741 13.5434 7.34591 13.5434 7.71378C13.5434 8.08203 13.2449 8.38091 12.8767 8.38091ZM10.3541 5.45703C9.88118 5.45703 9.49756 5.84028 9.49756 6.31353V10.9605C9.49756 11.4334 9.88118 11.8174 10.3541 11.8174C10.8277 11.8174 11.2106 11.4334 11.2106 10.9605V9.97203H12.8699V9.96866C14.1157 9.96866 15.1263 8.95878 15.1263 7.71303C15.1263 6.46691 14.1161 5.45703 12.8699 5.45703" fill="white"/>
<path d="M10.8019 18.3003H10.7873C10.5878 18.3003 10.4247 18.4679 10.4247 18.6734V21.7394C10.4247 21.9457 10.5878 22.1129 10.7873 22.1129H10.8019C11.0011 22.1129 11.1638 21.9457 11.1638 21.7394V18.6734C11.1638 18.4679 11.0011 18.3003 10.8019 18.3003Z" fill="#231F20"/>
<path d="M12.8573 21.6049C12.4586 21.6049 12.1365 21.2059 12.1365 20.7146C12.1365 20.2245 12.4586 19.8251 12.8573 19.8251C13.2559 19.8251 13.5776 20.2245 13.5776 20.7146C13.5776 21.2059 13.2563 21.6049 12.8573 21.6049ZM12.8573 19.317C12.0619 19.317 11.4161 19.9425 11.4161 20.715C11.4161 21.4886 12.0619 22.1138 12.8573 22.1138C13.6523 22.1138 14.2988 21.4883 14.2988 20.715C14.2988 19.9425 13.6523 19.317 12.8573 19.317Z" fill="#231F20"/>
<path d="M5.12129 21.6049C4.71291 21.6049 4.38291 21.2059 4.38291 20.7146C4.38291 20.2245 4.71291 19.8252 5.12129 19.8252C5.53004 19.8252 5.86004 20.2245 5.86004 20.7146C5.86004 21.2059 5.53042 21.6049 5.12129 21.6049ZM5.24467 19.317C4.91729 19.317 4.61691 19.4367 4.38291 19.6373V19.698C4.38291 19.4873 4.21792 19.3167 4.01354 19.3167C3.80954 19.3167 3.64417 19.4873 3.64417 19.698V22.7486C3.64417 22.9598 3.80916 23.1304 4.01354 23.1304C4.21792 23.1304 4.38291 22.9598 4.38291 22.7486V21.7932C4.61691 21.9934 4.91729 22.1134 5.24467 22.1134C5.99317 22.1134 6.59879 21.4879 6.59879 20.7146C6.59879 19.9425 5.99317 19.317 5.24467 19.317Z" fill="#231F20"/>
<path d="M18.8022 21.6049C18.3931 21.6049 18.0634 21.2059 18.0634 20.7147C18.0634 20.2242 18.3931 19.8255 18.8022 19.8255C19.2113 19.8255 19.5413 20.2242 19.5413 20.7147C19.5409 21.2059 19.2109 21.6049 18.8022 21.6049ZM19.9174 18.3008H19.9028C19.7033 18.3008 19.5409 18.468 19.5409 18.6739V19.6373C19.3066 19.4367 19.0066 19.317 18.6792 19.317C17.9307 19.317 17.3254 19.9425 17.3254 20.715C17.3254 21.4887 17.9307 22.1134 18.6792 22.1134C19.0066 22.1134 19.3066 21.9942 19.5409 21.7932V21.7392C19.5409 21.9454 19.7033 22.113 19.9028 22.113H19.9174C20.1169 22.113 20.2789 21.9454 20.2789 21.7392V18.6735C20.2789 18.468 20.1173 18.3008 19.9174 18.3008Z" fill="#231F20"/>
<path d="M16.7036 19.3143C16.4993 19.3143 16.3346 19.4797 16.3346 19.6833V21.0082C16.3346 21.3345 16.1194 21.5985 15.81 21.5985C15.501 21.5985 15.2895 21.3386 15.2895 21.012V20.9643V20.8968V19.6833C15.2895 19.4797 15.1245 19.3143 14.9201 19.3143C14.7165 19.3143 14.5511 19.4797 14.5511 19.6833V20.9167V20.9643V21.0401V21.1113C14.5511 21.7387 14.916 22.1107 15.5359 22.1107C15.9551 22.1107 16.1599 22.0207 16.3436 21.8197C16.3796 21.9858 16.5266 22.1107 16.704 22.1107C16.908 22.1107 17.073 21.9453 17.073 21.7413V19.6833C17.0726 19.4797 16.9076 19.3143 16.7036 19.3143Z" fill="#231F20"/>
<path d="M8.85639 18.978C9.13164 18.978 9.38589 19.0608 9.59401 19.2018L9.59439 19.2015C9.66976 19.2397 9.71589 19.2603 9.78751 19.2603C9.97839 19.2603 10.1333 19.1055 10.1333 18.9142C10.1333 18.7657 10.0208 18.6615 9.90676 18.5913C9.59776 18.4091 9.23701 18.2985 8.84476 18.2985C7.72914 18.2985 6.82464 19.1467 6.81751 20.1952C6.81751 20.1986 6.81714 20.2016 6.81714 20.2053V20.2061V20.2065C6.81714 20.2106 6.81751 20.214 6.81751 20.2173C6.82464 21.2655 7.72914 22.1137 8.84476 22.1137C9.23701 22.1137 9.59776 22.0035 9.90676 21.8208C10.0208 21.7503 10.1333 21.6465 10.1333 21.498C10.1333 21.3063 9.97839 21.1518 9.78751 21.1518C9.71589 21.1518 9.66976 21.1732 9.59439 21.2107L9.59401 21.2103C9.38589 21.351 9.13201 21.4342 8.85639 21.4342C8.14764 21.4342 7.57351 20.8905 7.56789 20.2177H7.56826C7.56826 20.2136 7.56751 20.2098 7.56714 20.2065C7.56751 20.2023 7.56826 20.199 7.56826 20.1956H7.56789C7.57351 19.5221 8.14801 18.978 8.85639 18.978Z" fill="#231F20"/>
</svg>
