<?xml version="1.0" standalone="no"?><!DOCTYPE svg PUBLIC "-//W3C//DTD SVG 1.1//EN" "http://www.w3.org/Graphics/SVG/1.1/DTD/svg11.dtd"><svg t="1625627071031" class="icon" viewBox="0 0 1024 1024" version="1.1" xmlns="http://www.w3.org/2000/svg" p-id="5282" xmlns:xlink="http://www.w3.org/1999/xlink" width="24" height="24"><defs><style type="text/css"></style></defs><path d="M609.09 584.818S824 437.872 828.636 438.187a318.602 318.602 0 0 0-574.75-96.095h3.252z" fill="#0364B8" p-id="5283"></path><path d="M391.025 380.054a253.576 253.576 0 0 0-133.887-37.962h-3.253A254.862 254.862 0 0 0 48.078 742.59l342.559-36.41 214.4-197.942z" fill="#0F78D4" p-id="5284"></path><path d="M828.636 438.187a205.225 205.225 0 0 0-13.981-0.51 206.463 206.463 0 0 0-82.09 16.991l-127.528 53.643 149.689 173.597 242.24 61.094a207.094 207.094 0 0 0-168.33-304.815z" fill="#1490DF" p-id="5285"></path><path d="M816.111 634.674l-52.865-31.555-121.218-72.599-36.991-22.16-97.552 41.068-186.899 78.595-83.789 35.195-188.72 79.372a254.474 254.474 0 0 0 209.06 109.226h557.518a207.07 207.07 0 0 0 182.311-108.814z" fill="#28A8EA" p-id="5286"></path></svg>