<?xml version="1.0" standalone="no"?><!DOCTYPE svg PUBLIC "-//W3C//DTD SVG 1.1//EN" "http://www.w3.org/Graphics/SVG/1.1/DTD/svg11.dtd"><svg t="1625633068698" class="icon" viewBox="0 0 1024 1024" version="1.1" xmlns="http://www.w3.org/2000/svg" p-id="18351" xmlns:xlink="http://www.w3.org/1999/xlink" width="24" height="24"><defs><style type="text/css"></style></defs><path d="M40.928 235.648C17.888 235.648 0 253.568 0 274.016v322.08a195.904 195.904 0 0 0 195.808 191.744h1.088-0.064a201.216 201.216 0 0 0 175.904-103.808l0.512-1.024c33.248 61.344 99.712 104.832 173.824 104.832 109.952 0 199.424-86.912 199.424-196.832 2.56-104.832-86.912-191.776-196.832-191.776-74.144 0-140.576 40.928-173.824 102.272-33.28-61.344-99.744-102.272-176.416-102.272-46.048 0-86.944 15.36-120.192 38.368V274.016A39.264 39.264 0 0 0 40.96 235.648h-0.064z m710.08 159.456a40.48 40.48 0 0 0-30.176 6.816l0.128-0.096c-15.36 12.8-20.448 38.368-7.68 56.224l102.272 132.96-102.24 132.896c-12.8 17.92-10.24 40.96 7.68 53.76 17.888 12.8 43.36 12.704 56.16-5.216l87.008-112.48L953.6 775.04c12.8 15.36 38.368 17.888 56.224 5.12 15.36-12.8 17.92-35.84 5.152-53.728l-99.744-132.896 99.744-130.432c12.8-17.888 12.704-43.424-5.152-56.224-20.48-12.8-43.488-10.24-56.224 7.68l-89.44 109.92-87.04-114.976c-6.368-7.68-15.904-12.8-26.112-14.432zM196.832 475.904c66.464 0 120.192 53.76 120.192 117.664 0 66.464-53.728 117.6-120.192 117.6s-120.16-51.104-120.16-117.6c0-63.904 53.664-117.664 120.16-117.664z m352.832 0c66.464 0 120.16 53.76 120.16 117.664-2.56 66.464-56.224 117.6-120.16 117.6-66.464 0-120.192-51.104-120.192-117.6 0-63.904 53.728-117.664 120.192-117.664z" fill="#0061D5" p-id="18352"></path></svg>