<svg width="24" height="24" viewBox="0 0 24 24" fill="none" xmlns="http://www.w3.org/2000/svg">
<path fill-rule="evenodd" clip-rule="evenodd" d="M6.36144 0H17.6386C21.1547 0 24 2.8453 24 6.36145V17.6385C24 21.1547 21.1547 24 17.6386 24H6.36144C2.8453 24 0 21.1547 0 17.6385V6.36145C0 2.8453 2.8453 0 6.36144 0ZM4.41253 6.39036H2.01253V17.6097H4.41253V6.39036ZM7.95179 14.6313C7.9634 14.0472 8.05591 13.6655 8.23518 13.4863C8.3682 13.307 8.57638 13.1855 8.84823 13.1161C9.1142 13.0467 9.12581 13.0525 9.68673 13.0467H10.3229C11.4911 13.0467 11.7629 12.8733 12.347 12.5263C12.7403 12.2891 12.9831 11.8959 13.2087 11.3928C13.4342 10.8954 13.5441 10.3171 13.5441 9.6694C13.5441 9.14313 13.4515 8.6516 13.2723 8.20047C13.093 7.7436 12.8328 7.38507 12.4974 7.11327C11.9364 6.63325 11.468 6.39036 9.50171 6.39036H5.74265V8.39133H8.99853C9.62893 8.39133 10.08 8.47807 10.3634 8.6458C10.7335 8.88287 10.9186 9.253 10.9186 9.75613C10.9186 10.2188 10.7161 10.5658 10.3113 10.7971C10.0511 10.9417 9.81975 11.0169 9.20097 11.0169H8.81352C8.0501 11.0169 7.86509 11.0689 7.50647 11.1672C7.14793 11.2655 6.81835 11.4622 6.5118 11.7571C5.8641 12.4164 5.54602 13.3764 5.56916 14.6313V17.6097H13.2492V15.626H7.94024V14.6313H7.95179ZM17.6328 17.6097C18.4713 17.6097 19.1017 17.5691 19.5238 17.4824C19.9461 17.3957 20.3335 17.2395 20.692 17.0024C21.5017 16.4877 21.9007 15.6954 21.9007 14.6313C21.9007 13.4747 21.4034 12.5725 20.4029 11.9248C21.4034 11.3407 21.9007 10.5311 21.9007 9.48433C21.9007 8.87713 21.785 8.2872 21.4497 7.7552C21.1142 7.18267 20.5995 6.81833 20.0154 6.60434C19.7668 6.51181 19.5412 6.45976 19.333 6.43663C19.1248 6.41349 18.6506 6.39615 17.9104 6.38458H14.7065V8.38553H17.4939C17.8872 8.38553 18.1648 8.39713 18.3268 8.426C18.4887 8.45493 18.6333 8.5128 18.7547 8.60533C19.0901 8.83087 19.2579 9.1894 19.2579 9.68093C19.2579 10.1321 19.1306 10.4617 18.8703 10.6757C18.6564 10.8549 18.1995 10.9475 17.4939 10.9475H15.7706V12.9311H17.4939C18.0781 12.9311 18.4887 13.0005 18.72 13.1335C19.0901 13.3475 19.2752 13.7349 19.2752 14.2959C19.2752 14.7585 19.1306 15.1055 18.8356 15.3369C18.5986 15.5277 18.1532 15.6203 17.4882 15.6203H14.7007V17.6039H17.6328V17.6097Z" fill="#597DFC"/>
</svg>
