<?xml version="1.0" standalone="no"?><!DOCTYPE svg PUBLIC "-//W3C//DTD SVG 1.1//EN" "http://www.w3.org/Graphics/SVG/1.1/DTD/svg11.dtd"><svg t="1625626724388" class="icon" viewBox="0 0 1024 1024" version="1.1" xmlns="http://www.w3.org/2000/svg" p-id="3742" width="24" height="24" xmlns:xlink="http://www.w3.org/1999/xlink"><defs><style type="text/css"></style></defs><path d="M157.63456 138.1376L10.24 235.34592l101.33504 81.14176c55.8592 44.68736 101.91872 81.14176 102.7072 81.14176 1.95584 0 294.77888-182.4768 295.3728-184.04352 0.38912-0.98304-44.29824-39.00416-98.97984-84.48-54.6816-45.6704-100.93568-84.08064-102.7072-85.4528-2.54976-2.34496-22.34368 10.00448-150.33344 94.48448zM616.27392 126.5664c-56.44288 46.848-102.30784 86.04672-101.91872 87.01952 0.58368 1.56672 293.41696 184.04352 295.3728 184.04352 0.58368 0 46.848-36.4544 102.5024-81.14176L1013.76 235.34592l-145.62304-95.8464C788.16256 86.784 721.7152 43.06944 720.7424 42.2912c-1.1776-0.59392-48.22016 37.24288-104.46848 84.2752zM112.9472 480.93184c-54.8864 44.6976-99.96288 82.1248-100.352 83.10784-0.98304 2.74432 291.25632 194.63168 294.00064 193.06496 1.37216-0.98304 47.43168-39.00416 102.11328-84.67456 54.6816-45.47584 100.74112-83.3024 102.11328-83.88608 1.37216-0.58368 48.0256 36.85376 104.8576 84.48 56.44288 46.848 103.09632 85.25824 103.68 85.25824 2.3552-0.19456 291.25632-191.68256 291.84-193.45408 0.58368-1.76128-192.6656-160.7168-199.33184-163.86048-2.54976-1.37216-37.43744 19.79392-150.13888 90.94144-80.75264 50.96448-148.1728 92.70272-149.74976 92.70272-1.56672 0-68.79232-41.55392-149.3504-92.50816-80.75264-50.96448-147.39456-92.50816-148.36736-92.50816s-46.63296 36.64896-101.31456 81.33632z" fill="#108CEE" p-id="3743"></path><path d="M409.09824 708.3008c-56.05376 47.8208-102.90176 87.02976-103.8848 87.02976-1.1776 0.19456-20.77696-12.544-43.90912-28.22144-22.92736-15.67744-42.1376-28.416-42.53696-28.416-0.58368 0-0.58368 14.70464-0.38912 32.73728l0.58368 32.72704 146.432 88.77056L512 981.71904l148.96128-89.37472 148.96128-89.56928v-65.86368l-43.12064 28.42624c-23.71584 15.67744-44.4928 28.81536-46.05952 29.39904-1.76128 0.78848-40.96-31.16032-105.64608-86.24128-56.64768-48.01536-103.29088-87.41888-103.48544-87.22432-0.39936 0-46.45888 39.19872-102.51264 87.02976z" fill="#108CEE" p-id="3744"></path></svg>